<svg xmlns="http://www.w3.org/2000/svg" xmlns:xlink="http://www.w3.org/1999/xlink" width="500" zoomAndPan="magnify" viewBox="0 0 375 374.999991" height="500" preserveAspectRatio="xMidYMid meet" version="1.0"><defs><clipPath id="c3d2d1dd4c"><path d="M 62.578125 0 L 312.328125 0 L 312.328125 375 L 62.578125 375 Z M 62.578125 0 " clip-rule="nonzero"/></clipPath></defs><path fill="#faf4e7" d="M 218.671875 187.5 C 218.671875 166.667969 252.449219 152.429688 270.703125 125.039062 C 291.515625 93.808594 291.515625 20.9375 291.515625 20.9375 L 83.390625 20.9375 C 83.390625 20.9375 83.390625 93.808594 104.203125 125.039062 C 122.457031 152.429688 156.234375 166.667969 156.234375 187.5 C 156.234375 208.332031 122.457031 222.570312 104.203125 249.960938 C 83.390625 281.191406 83.390625 354.0625 83.390625 354.0625 L 291.515625 354.0625 C 291.515625 354.0625 291.515625 281.191406 270.703125 249.960938 C 252.449219 222.570312 218.671875 208.332031 218.671875 187.5 Z M 218.671875 187.5 " fill-opacity="1" fill-rule="nonzero"/><path fill="#ffd79d" d="M 218.660156 249.960938 C 208.265625 249.960938 197.253906 239.550781 197.253906 229.140625 C 197.859375 211.308594 197.859375 199.511719 197.859375 187.5 C 197.859375 153.980469 229.433594 140.019531 248.851562 114.628906 L 126.054688 114.628906 C 145.464844 140.019531 177.046875 153.980469 177.046875 187.5 C 177.046875 199.523438 177.046875 211.328125 177.652344 229.140625 C 177.652344 239.550781 166.640625 249.960938 156.234375 249.960938 C 135.421875 249.960938 118.824219 268.53125 114.609375 281.191406 C 104.203125 312.421875 104.203125 354.0625 104.203125 354.0625 L 270.703125 354.0625 C 270.703125 354.0625 270.703125 312.421875 260.296875 281.191406 C 256.082031 268.53125 239.472656 249.960938 218.660156 249.960938 Z M 218.660156 249.960938 " fill-opacity="1" fill-rule="nonzero"/><g clip-path="url(#c3d2d1dd4c)"><path fill="#ffa3a3" d="M 312.328125 354.0625 C 312.328125 365.554688 303.003906 374.882812 291.515625 374.882812 L 83.390625 374.882812 C 71.902344 374.882812 62.578125 365.554688 62.578125 354.0625 C 62.578125 342.570312 71.902344 333.242188 83.390625 333.242188 L 291.515625 333.242188 C 303.003906 333.242188 312.328125 342.570312 312.328125 354.0625 Z M 312.328125 20.9375 C 312.328125 32.429688 303.003906 41.757812 291.515625 41.757812 L 83.390625 41.757812 C 71.902344 41.757812 62.578125 32.429688 62.578125 20.9375 C 62.578125 9.445312 71.902344 0.117188 83.390625 0.117188 L 291.515625 0.117188 C 303.003906 0.117188 312.328125 9.445312 312.328125 20.9375 Z M 312.328125 20.9375 " fill-opacity="1" fill-rule="nonzero"/></g></svg>