<svg xmlns="http://www.w3.org/2000/svg" xmlns:xlink="http://www.w3.org/1999/xlink" width="1300" zoomAndPan="magnify" viewBox="0 0 974.88 225" height="300" preserveAspectRatio="xMidYMid meet" version="1.0"><defs><clipPath id="8bf4574d13"><path d="M 0 22.042969 L 120.734375 22.042969 L 120.734375 202.769531 L 0 202.769531 Z M 0 22.042969 " clip-rule="nonzero"/></clipPath><clipPath id="8a187e30db"><path d="M 141.527344 22.042969 L 262.261719 22.042969 L 262.261719 202.769531 L 141.527344 202.769531 Z M 141.527344 22.042969 " clip-rule="nonzero"/></clipPath><clipPath id="2b745c2c75"><path d="M 283.054688 22.042969 L 403.792969 22.042969 L 403.792969 202.769531 L 283.054688 202.769531 Z M 283.054688 22.042969 " clip-rule="nonzero"/></clipPath><clipPath id="4b15f4530f"><path d="M 424.585938 22.042969 L 545.320312 22.042969 L 545.320312 202.769531 L 424.585938 202.769531 Z M 424.585938 22.042969 " clip-rule="nonzero"/></clipPath><clipPath id="17cd682d67"><path d="M 566.113281 22.042969 L 686.847656 22.042969 L 686.847656 202.769531 L 566.113281 202.769531 Z M 566.113281 22.042969 " clip-rule="nonzero"/></clipPath><clipPath id="11f16a8ba4"><path d="M 707.640625 22.042969 L 828.375 22.042969 L 828.375 202.769531 L 707.640625 202.769531 Z M 707.640625 22.042969 " clip-rule="nonzero"/></clipPath><clipPath id="f300e60cdb"><path d="M 849.167969 22.042969 L 969.902344 22.042969 L 969.902344 202.769531 L 849.167969 202.769531 Z M 849.167969 22.042969 " clip-rule="nonzero"/></clipPath></defs><path fill="#fff5e0" d="M 75.460938 112.40625 C 75.460938 102.367188 91.789062 95.503906 100.613281 82.304688 C 110.675781 67.253906 110.675781 32.136719 110.675781 32.136719 L 10.0625 32.136719 C 10.0625 32.136719 10.0625 67.253906 20.121094 82.304688 C 28.945312 95.503906 45.277344 102.367188 45.277344 112.40625 C 45.277344 122.445312 28.945312 129.308594 20.121094 142.507812 C 10.0625 157.558594 10.0625 192.679688 10.0625 192.679688 L 110.675781 192.679688 C 110.675781 192.679688 110.675781 157.558594 100.613281 142.507812 C 91.789062 129.308594 75.460938 122.445312 75.460938 112.40625 Z M 75.460938 112.40625 " fill-opacity="1" fill-rule="nonzero"/><path fill="#ffd9a1" d="M 75.453125 142.507812 C 70.429688 142.507812 65.105469 137.492188 65.105469 132.472656 C 65.398438 123.878906 65.398438 118.195312 65.398438 112.40625 C 65.398438 96.25 80.660156 89.523438 90.046875 77.289062 L 30.6875 77.289062 C 40.070312 89.523438 55.335938 96.25 55.335938 112.40625 C 55.335938 118.199219 55.335938 123.890625 55.628906 132.472656 C 55.628906 137.492188 50.304688 142.507812 45.277344 142.507812 C 35.214844 142.507812 27.191406 151.457031 25.152344 157.558594 C 20.121094 172.609375 20.121094 192.679688 20.121094 192.679688 L 100.613281 192.679688 C 100.613281 192.679688 100.613281 172.609375 95.582031 157.558594 C 93.542969 151.457031 85.515625 142.507812 75.453125 142.507812 Z M 75.453125 142.507812 " fill-opacity="1" fill-rule="nonzero"/><g clip-path="url(#8bf4574d13)"><path fill="#ffa1a1" d="M 120.734375 192.679688 C 120.734375 198.214844 116.226562 202.710938 110.675781 202.710938 L 10.0625 202.710938 C 4.507812 202.710938 0 198.214844 0 192.679688 C 0 187.140625 4.507812 182.644531 10.0625 182.644531 L 110.675781 182.644531 C 116.226562 182.644531 120.734375 187.140625 120.734375 192.679688 Z M 120.734375 32.136719 C 120.734375 37.675781 116.226562 42.167969 110.675781 42.167969 L 10.0625 42.167969 C 4.507812 42.167969 0 37.675781 0 32.136719 C 0 26.597656 4.507812 22.101562 10.0625 22.101562 L 110.675781 22.101562 C 116.226562 22.101562 120.734375 26.597656 120.734375 32.136719 Z M 120.734375 32.136719 " fill-opacity="1" fill-rule="nonzero"/></g><path fill="#fff5e0" d="M 216.988281 112.40625 C 216.988281 102.367188 233.316406 95.503906 242.140625 82.304688 C 252.203125 67.253906 252.203125 32.136719 252.203125 32.136719 L 151.589844 32.136719 C 151.589844 32.136719 151.589844 67.253906 161.652344 82.304688 C 170.472656 95.503906 186.804688 102.367188 186.804688 112.40625 C 186.804688 122.445312 170.472656 129.308594 161.652344 142.507812 C 151.589844 157.558594 151.589844 192.679688 151.589844 192.679688 L 252.203125 192.679688 C 252.203125 192.679688 252.203125 157.558594 242.140625 142.507812 C 233.316406 129.308594 216.988281 122.445312 216.988281 112.40625 Z M 216.988281 112.40625 " fill-opacity="1" fill-rule="nonzero"/><path fill="#ffd9a1" d="M 216.984375 142.507812 C 211.957031 142.507812 206.632812 137.492188 206.632812 132.472656 C 206.925781 123.878906 206.925781 118.195312 206.925781 112.40625 C 206.925781 96.25 222.1875 89.523438 231.578125 77.289062 L 172.214844 77.289062 C 181.597656 89.523438 196.863281 96.25 196.863281 112.40625 C 196.863281 118.199219 196.863281 123.890625 197.15625 132.472656 C 197.15625 137.492188 191.835938 142.507812 186.804688 142.507812 C 176.742188 142.507812 168.71875 151.457031 166.679688 157.558594 C 161.652344 172.609375 161.652344 192.679688 161.652344 192.679688 L 242.140625 192.679688 C 242.140625 192.679688 242.140625 172.609375 237.109375 157.558594 C 235.074219 151.457031 227.042969 142.507812 216.984375 142.507812 Z M 216.984375 142.507812 " fill-opacity="1" fill-rule="nonzero"/><g clip-path="url(#8a187e30db)"><path fill="#ffa1a1" d="M 262.261719 192.679688 C 262.261719 198.214844 257.753906 202.710938 252.203125 202.710938 L 151.589844 202.710938 C 146.035156 202.710938 141.527344 198.214844 141.527344 192.679688 C 141.527344 187.140625 146.035156 182.644531 151.589844 182.644531 L 252.203125 182.644531 C 257.753906 182.644531 262.261719 187.140625 262.261719 192.679688 Z M 262.261719 32.136719 C 262.261719 37.675781 257.753906 42.167969 252.203125 42.167969 L 151.589844 42.167969 C 146.035156 42.167969 141.527344 37.675781 141.527344 32.136719 C 141.527344 26.597656 146.035156 22.101562 151.589844 22.101562 L 252.203125 22.101562 C 257.753906 22.101562 262.261719 26.597656 262.261719 32.136719 Z M 262.261719 32.136719 " fill-opacity="1" fill-rule="nonzero"/></g><path fill="#fff5e0" d="M 358.515625 112.40625 C 358.515625 102.367188 374.84375 95.503906 383.667969 82.304688 C 393.730469 67.253906 393.730469 32.136719 393.730469 32.136719 L 293.117188 32.136719 C 293.117188 32.136719 293.117188 67.253906 303.179688 82.304688 C 312.003906 95.503906 328.332031 102.367188 328.332031 112.40625 C 328.332031 122.445312 312.003906 129.308594 303.179688 142.507812 C 293.117188 157.558594 293.117188 192.679688 293.117188 192.679688 L 393.730469 192.679688 C 393.730469 192.679688 393.730469 157.558594 383.667969 142.507812 C 374.84375 129.308594 358.515625 122.445312 358.515625 112.40625 Z M 358.515625 112.40625 " fill-opacity="1" fill-rule="nonzero"/><path fill="#ffd9a1" d="M 358.511719 142.507812 C 353.484375 142.507812 348.164062 137.492188 348.164062 132.472656 C 348.453125 123.878906 348.453125 118.195312 348.453125 112.40625 C 348.453125 96.25 363.71875 89.523438 373.105469 77.289062 L 313.742188 77.289062 C 323.125 89.523438 338.394531 96.25 338.394531 112.40625 C 338.394531 118.199219 338.394531 123.890625 338.683594 132.472656 C 338.683594 137.492188 333.363281 142.507812 328.332031 142.507812 C 318.269531 142.507812 310.246094 151.457031 308.210938 157.558594 C 303.179688 172.609375 303.179688 192.679688 303.179688 192.679688 L 383.667969 192.679688 C 383.667969 192.679688 383.667969 172.609375 378.636719 157.558594 C 376.601562 151.457031 368.570312 142.507812 358.511719 142.507812 Z M 358.511719 142.507812 " fill-opacity="1" fill-rule="nonzero"/><g clip-path="url(#2b745c2c75)"><path fill="#ffa1a1" d="M 403.792969 192.679688 C 403.792969 198.214844 399.285156 202.710938 393.730469 202.710938 L 293.117188 202.710938 C 287.5625 202.710938 283.054688 198.214844 283.054688 192.679688 C 283.054688 187.140625 287.5625 182.644531 293.117188 182.644531 L 393.730469 182.644531 C 399.285156 182.644531 403.792969 187.140625 403.792969 192.679688 Z M 403.792969 32.136719 C 403.792969 37.675781 399.285156 42.167969 393.730469 42.167969 L 293.117188 42.167969 C 287.5625 42.167969 283.054688 37.675781 283.054688 32.136719 C 283.054688 26.597656 287.5625 22.101562 293.117188 22.101562 L 393.730469 22.101562 C 399.285156 22.101562 403.792969 26.597656 403.792969 32.136719 Z M 403.792969 32.136719 " fill-opacity="1" fill-rule="nonzero"/></g><path fill="#fff5e0" d="M 500.042969 112.40625 C 500.042969 102.367188 516.371094 95.503906 525.195312 82.304688 C 535.257812 67.253906 535.257812 32.136719 535.257812 32.136719 L 434.644531 32.136719 C 434.644531 32.136719 434.644531 67.253906 444.707031 82.304688 C 453.53125 95.503906 469.859375 102.367188 469.859375 112.40625 C 469.859375 122.445312 453.53125 129.308594 444.707031 142.507812 C 434.644531 157.558594 434.644531 192.679688 434.644531 192.679688 L 535.257812 192.679688 C 535.257812 192.679688 535.257812 157.558594 525.195312 142.507812 C 516.371094 129.308594 500.042969 122.445312 500.042969 112.40625 Z M 500.042969 112.40625 " fill-opacity="1" fill-rule="nonzero"/><path fill="#ffd9a1" d="M 500.039062 142.507812 C 495.011719 142.507812 489.691406 137.492188 489.691406 132.472656 C 489.980469 123.878906 489.980469 118.195312 489.980469 112.40625 C 489.980469 96.25 505.246094 89.523438 514.632812 77.289062 L 455.269531 77.289062 C 464.652344 89.523438 479.921875 96.25 479.921875 112.40625 C 479.921875 118.199219 479.921875 123.890625 480.210938 132.472656 C 480.210938 137.492188 474.890625 142.507812 469.859375 142.507812 C 459.796875 142.507812 451.773438 151.457031 449.738281 157.558594 C 444.707031 172.609375 444.707031 192.679688 444.707031 192.679688 L 525.195312 192.679688 C 525.195312 192.679688 525.195312 172.609375 520.167969 157.558594 C 518.128906 151.457031 510.101562 142.507812 500.039062 142.507812 Z M 500.039062 142.507812 " fill-opacity="1" fill-rule="nonzero"/><g clip-path="url(#4b15f4530f)"><path fill="#ffa1a1" d="M 545.320312 192.679688 C 545.320312 198.214844 540.8125 202.710938 535.257812 202.710938 L 434.644531 202.710938 C 429.089844 202.710938 424.585938 198.214844 424.585938 192.679688 C 424.585938 187.140625 429.089844 182.644531 434.644531 182.644531 L 535.257812 182.644531 C 540.8125 182.644531 545.320312 187.140625 545.320312 192.679688 Z M 545.320312 32.136719 C 545.320312 37.675781 540.8125 42.167969 535.257812 42.167969 L 434.644531 42.167969 C 429.089844 42.167969 424.585938 37.675781 424.585938 32.136719 C 424.585938 26.597656 429.089844 22.101562 434.644531 22.101562 L 535.257812 22.101562 C 540.8125 22.101562 545.320312 26.597656 545.320312 32.136719 Z M 545.320312 32.136719 " fill-opacity="1" fill-rule="nonzero"/></g><path fill="#fff5e0" d="M 641.570312 112.40625 C 641.570312 102.367188 657.902344 95.503906 666.726562 82.304688 C 676.785156 67.253906 676.785156 32.136719 676.785156 32.136719 L 576.171875 32.136719 C 576.171875 32.136719 576.171875 67.253906 586.234375 82.304688 C 595.058594 95.503906 611.386719 102.367188 611.386719 112.40625 C 611.386719 122.445312 595.058594 129.308594 586.234375 142.507812 C 576.171875 157.558594 576.171875 192.679688 576.171875 192.679688 L 676.785156 192.679688 C 676.785156 192.679688 676.785156 157.558594 666.726562 142.507812 C 657.902344 129.308594 641.570312 122.445312 641.570312 112.40625 Z M 641.570312 112.40625 " fill-opacity="1" fill-rule="nonzero"/><path fill="#ffd9a1" d="M 641.566406 142.507812 C 636.539062 142.507812 631.21875 137.492188 631.21875 132.472656 C 631.511719 123.878906 631.511719 118.195312 631.511719 112.40625 C 631.511719 96.25 646.773438 89.523438 656.160156 77.289062 L 596.800781 77.289062 C 606.179688 89.523438 621.449219 96.25 621.449219 112.40625 C 621.449219 118.199219 621.449219 123.890625 621.742188 132.472656 C 621.742188 137.492188 616.417969 142.507812 611.386719 142.507812 C 601.328125 142.507812 593.300781 151.457031 591.265625 157.558594 C 586.234375 172.609375 586.234375 192.679688 586.234375 192.679688 L 666.726562 192.679688 C 666.726562 192.679688 666.726562 172.609375 661.695312 157.558594 C 659.65625 151.457031 651.628906 142.507812 641.566406 142.507812 Z M 641.566406 142.507812 " fill-opacity="1" fill-rule="nonzero"/><g clip-path="url(#17cd682d67)"><path fill="#ffa1a1" d="M 686.847656 192.679688 C 686.847656 198.214844 682.339844 202.710938 676.785156 202.710938 L 576.171875 202.710938 C 570.621094 202.710938 566.113281 198.214844 566.113281 192.679688 C 566.113281 187.140625 570.621094 182.644531 576.171875 182.644531 L 676.785156 182.644531 C 682.339844 182.644531 686.847656 187.140625 686.847656 192.679688 Z M 686.847656 32.136719 C 686.847656 37.675781 682.339844 42.167969 676.785156 42.167969 L 576.171875 42.167969 C 570.621094 42.167969 566.113281 37.675781 566.113281 32.136719 C 566.113281 26.597656 570.621094 22.101562 576.171875 22.101562 L 676.785156 22.101562 C 682.339844 22.101562 686.847656 26.597656 686.847656 32.136719 Z M 686.847656 32.136719 " fill-opacity="1" fill-rule="nonzero"/></g><path fill="#fff5e0" d="M 783.097656 112.40625 C 783.097656 102.367188 799.429688 95.503906 808.253906 82.304688 C 818.3125 67.253906 818.3125 32.136719 818.3125 32.136719 L 717.703125 32.136719 C 717.703125 32.136719 717.703125 67.253906 727.761719 82.304688 C 736.585938 95.503906 752.914062 102.367188 752.914062 112.40625 C 752.914062 122.445312 736.585938 129.308594 727.761719 142.507812 C 717.703125 157.558594 717.703125 192.679688 717.703125 192.679688 L 818.3125 192.679688 C 818.3125 192.679688 818.3125 157.558594 808.253906 142.507812 C 799.429688 129.308594 783.097656 122.445312 783.097656 112.40625 Z M 783.097656 112.40625 " fill-opacity="1" fill-rule="nonzero"/><path fill="#ffd9a1" d="M 783.09375 142.507812 C 778.070312 142.507812 772.746094 137.492188 772.746094 132.472656 C 773.039062 123.878906 773.039062 118.195312 773.039062 112.40625 C 773.039062 96.25 788.300781 89.523438 797.6875 77.289062 L 738.328125 77.289062 C 747.710938 89.523438 762.976562 96.25 762.976562 112.40625 C 762.976562 118.199219 762.976562 123.890625 763.269531 132.472656 C 763.269531 137.492188 757.945312 142.507812 752.914062 142.507812 C 742.855469 142.507812 734.832031 151.457031 732.792969 157.558594 C 727.761719 172.609375 727.761719 192.679688 727.761719 192.679688 L 808.253906 192.679688 C 808.253906 192.679688 808.253906 172.609375 803.222656 157.558594 C 801.183594 151.457031 793.15625 142.507812 783.09375 142.507812 Z M 783.09375 142.507812 " fill-opacity="1" fill-rule="nonzero"/><g clip-path="url(#11f16a8ba4)"><path fill="#ffa1a1" d="M 828.375 192.679688 C 828.375 198.214844 823.867188 202.710938 818.3125 202.710938 L 717.703125 202.710938 C 712.148438 202.710938 707.640625 198.214844 707.640625 192.679688 C 707.640625 187.140625 712.148438 182.644531 717.703125 182.644531 L 818.3125 182.644531 C 823.867188 182.644531 828.375 187.140625 828.375 192.679688 Z M 828.375 32.136719 C 828.375 37.675781 823.867188 42.167969 818.3125 42.167969 L 717.703125 42.167969 C 712.148438 42.167969 707.640625 37.675781 707.640625 32.136719 C 707.640625 26.597656 712.148438 22.101562 717.703125 22.101562 L 818.3125 22.101562 C 823.867188 22.101562 828.375 26.597656 828.375 32.136719 Z M 828.375 32.136719 " fill-opacity="1" fill-rule="nonzero"/></g><path fill="#fff5e0" d="M 924.628906 112.40625 C 924.628906 102.367188 940.957031 95.503906 949.78125 82.304688 C 959.84375 67.253906 959.84375 32.136719 959.84375 32.136719 L 859.230469 32.136719 C 859.230469 32.136719 859.230469 67.253906 869.289062 82.304688 C 878.113281 95.503906 894.445312 102.367188 894.445312 112.40625 C 894.445312 122.445312 878.113281 129.308594 869.289062 142.507812 C 859.230469 157.558594 859.230469 192.679688 859.230469 192.679688 L 959.84375 192.679688 C 959.84375 192.679688 959.84375 157.558594 949.78125 142.507812 C 940.957031 129.308594 924.628906 122.445312 924.628906 112.40625 Z M 924.628906 112.40625 " fill-opacity="1" fill-rule="nonzero"/><path fill="#ffd9a1" d="M 924.621094 142.507812 C 919.597656 142.507812 914.273438 137.492188 914.273438 132.472656 C 914.566406 123.878906 914.566406 118.195312 914.566406 112.40625 C 914.566406 96.25 929.828125 89.523438 939.214844 77.289062 L 879.855469 77.289062 C 889.238281 89.523438 904.503906 96.25 904.503906 112.40625 C 904.503906 118.199219 904.503906 123.890625 904.796875 132.472656 C 904.796875 137.492188 899.472656 142.507812 894.445312 142.507812 C 884.382812 142.507812 876.359375 151.457031 874.320312 157.558594 C 869.289062 172.609375 869.289062 192.679688 869.289062 192.679688 L 949.78125 192.679688 C 949.78125 192.679688 949.78125 172.609375 944.75 157.558594 C 942.710938 151.457031 934.683594 142.507812 924.621094 142.507812 Z M 924.621094 142.507812 " fill-opacity="1" fill-rule="nonzero"/><g clip-path="url(#f300e60cdb)"><path fill="#ffa1a1" d="M 969.902344 192.679688 C 969.902344 198.214844 965.394531 202.710938 959.84375 202.710938 L 859.230469 202.710938 C 853.675781 202.710938 849.167969 198.214844 849.167969 192.679688 C 849.167969 187.140625 853.675781 182.644531 859.230469 182.644531 L 959.84375 182.644531 C 965.394531 182.644531 969.902344 187.140625 969.902344 192.679688 Z M 969.902344 32.136719 C 969.902344 37.675781 965.394531 42.167969 959.84375 42.167969 L 859.230469 42.167969 C 853.675781 42.167969 849.167969 37.675781 849.167969 32.136719 C 849.167969 26.597656 853.675781 22.101562 859.230469 22.101562 L 959.84375 22.101562 C 965.394531 22.101562 969.902344 26.597656 969.902344 32.136719 Z M 969.902344 32.136719 " fill-opacity="1" fill-rule="nonzero"/></g></svg>